<svg width="80" height="26" viewBox="0 0 80 26" fill="none" xmlns="http://www.w3.org/2000/svg">
<path d="M17.39 25.78L13.73 21.82C12.83 22.08 11.84 22.21 10.76 22.21C8.82 22.21 7.03 21.76 5.39 20.86C3.77 19.94 2.48 18.67 1.52 17.05C0.58 15.41 0.11 13.57 0.11 11.53C0.11 9.49 0.58 7.66 1.52 6.04C2.48 4.42 3.77 3.16 5.39 2.26C7.03 1.34 8.82 0.879998 10.76 0.879998C12.72 0.879998 14.51 1.34 16.13 2.26C17.77 3.16 19.06 4.42 20 6.04C20.94 7.66 21.41 9.49 21.41 11.53C21.41 13.45 20.99 15.19 20.15 16.75C19.33 18.29 18.19 19.53 16.73 20.47L21.74 25.78H17.39ZM3.62 11.53C3.62 13.07 3.92 14.43 4.52 15.61C5.14 16.77 5.99 17.67 7.07 18.31C8.15 18.93 9.38 19.24 10.76 19.24C12.14 19.24 13.37 18.93 14.45 18.31C15.53 17.67 16.37 16.77 16.97 15.61C17.59 14.43 17.9 13.07 17.9 11.53C17.9 9.99 17.59 8.64 16.97 7.48C16.37 6.32 15.53 5.43 14.45 4.81C13.37 4.19 12.14 3.88 10.76 3.88C9.38 3.88 8.15 4.19 7.07 4.81C5.99 5.43 5.14 6.32 4.52 7.48C3.92 8.64 3.62 9.99 3.62 11.53ZM28.2533 1.15V14.44C28.2533 16.02 28.6633 17.21 29.4833 18.01C30.3233 18.81 31.4833 19.21 32.9633 19.21C34.4633 19.21 35.6233 18.81 36.4433 18.01C37.2833 17.21 37.7033 16.02 37.7033 14.44V1.15H41.1233V14.38C41.1233 16.08 40.7533 17.52 40.0133 18.7C39.2733 19.88 38.2833 20.76 37.0433 21.34C35.8033 21.92 34.4333 22.21 32.9333 22.21C31.4333 22.21 30.0633 21.92 28.8233 21.34C27.6033 20.76 26.6333 19.88 25.9133 18.7C25.1933 17.52 24.8333 16.08 24.8333 14.38V1.15H28.2533ZM59.0462 1.15V3.94H53.4962V22H50.0762V3.94H44.4962V1.15H59.0462ZM79.1598 1.15V22H75.7398V12.88H65.9298V22H62.5098V1.15H65.9298V10.09H75.7398V1.15H79.1598Z" fill="url(#paint0_linear_2_3)"/>
<defs>
<linearGradient id="paint0_linear_2_3" x1="40.5" y1="-11" x2="40.5" y2="34" gradientUnits="userSpaceOnUse">
<stop offset="0.18" stop-color="#FF56F6"/>
<stop offset="0.43" stop-color="#B936EE"/>
<stop offset="0.85" stop-color="#3BACE2"/>
<stop offset="1" stop-color="#406AFF"/>
</linearGradient>
</defs>
</svg>
